HIERARCHY
ROOT Hips
{
	OFFSET 0.000000 8.830580 0.000000
	CHANNELS 6 Xposition Yposition Zposition Zrotation Yrotation Xrotation 
	JOINT Spine
	{
		OFFSET 0.000000 0.010000 0.000000
		CHANNELS 3 Zrotation Yrotation Xrotation
		JOINT Spine1
		{
			OFFSET 0.000000 2.459130 0.000000
			CHANNELS 3 Zrotation Yrotation Xrotation
			JOINT Neck
			{
				OFFSET 0.000000 2.484630 0.000000
				CHANNELS 3 Zrotation Yrotation Xrotation
				JOINT Head_virtual
				{
					OFFSET 0.000000 0.000000 0.000000
					CHANNELS 3 Zrotation Yrotation Xrotation
					JOINT Head
					{
						OFFSET 0.000000 0.927525 0.000000
						CHANNELS 3 Zrotation Yrotation Xrotation
						End Site
						{
							OFFSET 0.000000 0.000000 0.000000
						}
					}
				}
				JOINT LeftUpArm_virtual
				{
					OFFSET 0.000000 0.000000 0.000000
					CHANNELS 3 Zrotation Yrotation Xrotation
					JOINT LeftUpArm
					{
						OFFSET 1.248820 0.000000 0.000000
						CHANNELS 3 Zrotation Yrotation Xrotation
						JOINT LeftForeArm
						{
							OFFSET 2.597580 0.000000 0.000000
							CHANNELS 3 Zrotation Yrotation Xrotation
							JOINT LeftHand
							{
								OFFSET 2.455420 0.000000 0.000000
								CHANNELS 3 Zrotation Yrotation Xrotation
								End Site
								{
									OFFSET 0.000000 0.000000 0.000000
								}
							}
						}
					}
				}
				JOINT RightUpArm_virtual
				{
					OFFSET -0.000000 -0.000000 -0.000000
					CHANNELS 3 Zrotation Yrotation Xrotation
					JOINT RightUpArm
					{
						OFFSET -1.248820 -0.000000 -0.000000
						CHANNELS 3 Zrotation Yrotation Xrotation
						JOINT RightForeArm
						{
							OFFSET -2.597580 -0.000000 -0.000000
							CHANNELS 3 Zrotation Yrotation Xrotation
							JOINT RightHand
							{
								OFFSET -2.455420 -0.000000 -0.000000
								CHANNELS 3 Zrotation Yrotation Xrotation
								End Site
								{
									OFFSET 0.000000 0.000000 0.000000
								}
							}
						}
					}
				}
			}
		}
	}
	JOINT LeftUpLeg
	{
		OFFSET 1.271939 0.000000 0.000000
		CHANNELS 3 Zrotation Yrotation Xrotation
		JOINT LeftLowLeg
		{
			OFFSET 0.000000 -4.342910 0.000000
			CHANNELS 3 Zrotation Yrotation Xrotation
			JOINT LeftFoot
			{
				OFFSET 0.000000 -4.487670 0.000000
				CHANNELS 3 Zrotation Yrotation Xrotation
				JOINT LeftToeBase
				{
					OFFSET 0.000000 0.000000 1.515070
					CHANNELS 3 Zrotation Yrotation Xrotation
					End Site
					{
						OFFSET 0.000000 0.000000 0.000000
					}
				}
			}
		}
	}
	JOINT RightUpLeg
	{
		OFFSET -1.271939 0.000000 0.000000
		CHANNELS 3 Zrotation Yrotation Xrotation
		JOINT RightLowLeg
		{
			OFFSET 0.000000 -4.342910 0.000000
			CHANNELS 3 Zrotation Yrotation Xrotation
			JOINT RightFoot
			{
				OFFSET 0.000000 -4.487670 0.000000
				CHANNELS 3 Zrotation Yrotation Xrotation
				JOINT RightToeBase
				{
					OFFSET 0.000000 0.000000 1.515070
					CHANNELS 3 Zrotation Yrotation Xrotation
					End Site
					{
						OFFSET 0.000000 0.000000 0.000000
					}
				}
			}
		}
	}
}
MOTION
Frames: 7
Frame Time: 0.041667
-17.523516 9.200681 44.885239 -174.836772 -1.020996 -172.948655 3.298077 -2.075124 -9.104901 -0.184483 -2.433121 3.840408 0.000000 0.000000 0.000000 -1.144835 3.422676 -6.894303 4.713473 6.361217 -49.365979 -2.534510 11.803800 -3.186990 -12.202100 -4.621000 -31.181601 0.000000 -19.189699 0.000000 29.567400 8.762620 21.038300 9.353030 -9.786530 0.702275 11.604700 -0.548012 -34.753300 0.000000 21.115601 0.000000 -17.900200 -2.314930 21.922100 7.156692 -4.997162 -6.969441 0.000000 0.000000 7.688530 9.570353 -1.724519 4.964854 0.000000 0.000000 -33.075001 1.987854 7.201316 -3.950844 0.000000 0.000000 6.209250 7.335704 -6.186883 9.903658 0.000000 0.000000 -27.279400 
-17.523062 9.200711 44.884627 -174.839480 -1.014833 -172.949366 3.272524 -2.088392 -9.118868 -0.136782 -2.439445 3.848003 0.000000 0.000000 0.000000 -1.170941 3.437759 -6.835624 4.708529 6.349869 -49.334274 -2.573750 11.811500 -3.216120 -12.189200 -4.625560 -31.180901 0.000000 -19.098900 0.000000 29.396900 8.450440 21.032400 9.326230 -9.791070 0.698974 11.610300 -0.543323 -34.711899 0.000000 21.149200 0.000000 -17.919701 -2.344800 21.932699 7.151591 -4.949210 -6.975356 0.000000 0.000000 7.712900 9.576368 -1.755473 4.953431 0.000000 0.000000 -33.096001 1.990629 7.177197 -3.939667 0.000000 0.000000 6.197470 7.315871 -6.173446 9.902348 0.000000 0.000000 -27.261200 
-17.522174 9.200468 44.884047 -174.841638 -1.008961 -172.941920 3.295439 -2.061872 -9.122106 -0.208456 -2.419613 3.807710 0.000000 0.000000 0.000000 -1.095554 3.418721 -6.741466 4.714732 6.386036 -49.280428 -2.524100 11.770800 -3.184290 -12.208700 -4.651790 -31.152000 0.000000 -19.095800 0.000000 29.305500 8.417710 21.159300 9.379320 -9.857240 0.730788 11.605500 -0.514969 -34.757999 0.000000 21.153099 0.000000 -17.927999 -2.337610 21.949900 7.157172 -4.986367 -6.982878 0.000000 0.000000 7.723960 9.575842 -1.716122 4.948925 0.000000 0.000000 -33.077900 1.993866 7.164468 -3.951188 0.000000 0.000000 6.211180 7.314468 -6.156379 9.891162 0.000000 0.000000 -27.274300 
-17.521281 9.200379 44.883289 -174.843073 -1.003971 -172.939778 3.283756 -2.066779 -9.149383 -0.205520 -2.421330 3.832157 0.000000 0.000000 0.000000 -1.092321 3.434700 -6.680076 4.737498 6.395591 -49.250827 -2.541690 11.764500 -3.189440 -12.211800 -4.669750 -31.143499 0.000000 -19.091999 0.000000 29.302099 8.362020 21.268200 9.408770 -9.875000 0.739341 11.599800 -0.496019 -34.806900 0.000000 21.173100 0.000000 -17.929899 -2.333230 21.956400 7.160948 -5.001412 -6.987958 0.000000 0.000000 7.741110 9.583900 -1.688976 4.940251 0.000000 0.000000 -33.069901 1.995466 7.173676 -3.960662 0.000000 0.000000 6.230420 7.327772 -6.148587 9.881428 0.000000 0.000000 -27.264000 
-17.520371 9.200410 44.882514 -174.837819 -1.009056 -172.945735 3.249883 -2.107374 -9.179952 -0.136982 -2.452092 3.894491 0.000000 0.000000 0.000000 -1.147423 3.468407 -6.644935 4.753602 6.377826 -49.252579 -2.600450 11.808500 -3.190660 -12.206400 -4.690540 -31.121599 0.000000 -19.084000 0.000000 29.334400 8.349000 21.282101 9.389260 -9.854030 0.713429 11.605800 -0.460663 -34.790100 0.000000 21.157301 0.000000 -17.938801 -2.338000 22.018000 7.171948 -5.021600 -6.982724 0.000000 0.000000 7.751610 9.574899 -1.673446 4.931509 0.000000 0.000000 -33.041700 2.004879 7.204347 -3.951142 0.000000 0.000000 6.232430 7.338825 -6.168996 9.882003 0.000000 0.000000 -27.268300 
-17.519593 9.200381 44.881583 -174.830459 -1.006737 -172.967027 3.254270 -2.119464 -9.187210 -0.143895 -2.465009 3.946357 0.000000 0.000000 0.000000 -1.159156 3.477834 -6.601588 4.778371 6.372512 -49.275831 -2.624210 11.808100 -3.169000 -12.176200 -4.694940 -31.044399 0.000000 -19.064800 0.000000 29.380199 8.375290 21.268600 9.408970 -9.852560 0.692534 11.598800 -0.439016 -34.733501 0.000000 21.127399 0.000000 -17.858400 -2.339600 22.056200 7.179223 -4.992059 -6.954409 0.000000 0.000000 7.751860 9.565815 -1.699259 4.916367 0.000000 0.000000 -33.059799 2.017912 7.231157 -3.912547 0.000000 0.000000 6.209490 7.325332 -6.188131 9.890111 0.000000 0.000000 -27.273500 
-17.518317 9.200154 44.880548 -174.829610 -0.983812 -172.966526 3.269868 -2.094213 -9.211986 -0.198794 -2.444233 3.985021 0.000000 0.000000 0.000000 -1.094933 3.425921 -6.537836 4.785795 6.368317 -49.275593 -2.625920 11.750000 -3.126400 -12.138800 -4.686120 -30.987801 0.000000 -19.043501 0.000000 29.450199 8.323480 21.240900 9.452230 -9.918570 0.727774 11.617300 -0.367857 -34.724201 0.000000 21.217300 0.000000 -18.037399 -2.831820 22.090000 7.180998 -4.951320 -6.941791 0.000000 0.000000 7.751240 9.573860 -1.701539 4.905268 0.000000 0.000000 -33.076401 2.025917 7.250318 -3.894527 0.000000 0.000000 6.183540 7.326978 -6.190010 9.884513 0.000000 0.000000 -27.278500 
